<?xml version="1.0" standalone="no"?>
<!DOCTYPE svg PUBLIC "-//W3C//DTD SVG 20010904//EN"
 "http://www.w3.org/TR/2001/REC-SVG-20010904/DTD/svg10.dtd">
<svg version="1.0" xmlns="http://www.w3.org/2000/svg"
 width="99.000000pt" height="99.000000pt" viewBox="0 0 2000.000000 2000.000000"
 preserveAspectRatio="xMidYMid meet">
<metadata>
Created by potrace 1.15, written by Peter Selinger 2001-2017
</metadata>
<g transform="translate(0.000000,2000.000000) scale(0.100000,-0.100000)"
fill="#000000" stroke="none">
<path d="M5868 10430 c-278 -50 -491 -242 -584 -525 -38 -116 -45 -306 -15
-425 63 -253 235 -432 491 -512 63 -19 96 -23 210 -23 184 0 307 34 437 123
73 49 188 171 231 244 127 215 133 526 15 761 -48 97 -179 228 -278 279 -117
60 -194 79 -335 83 -69 2 -146 0 -172 -5z m282 -284 c98 -35 201 -140 241
-246 32 -85 42 -156 36 -260 -14 -240 -136 -386 -351 -420 -102 -16 -227 6
-313 57 -56 32 -134 119 -162 179 -26 55 -51 162 -50 219 0 76 27 194 59 259
56 113 157 198 267 226 54 13 220 5 273 -14z"/>
<path d="M13675 10434 c-16 -2 -67 -9 -112 -15 l-83 -11 0 -718 0 -717 38 -6
c208 -33 495 -34 632 -2 219 50 348 165 385 342 47 222 -30 409 -205 498 l-52
27 30 31 c54 55 76 120 76 217 0 98 -20 151 -82 214 -51 54 -99 82 -189 113
-70 23 -95 26 -243 29 -91 1 -178 0 -195 -2z m356 -252 c45 -27 69 -75 69
-135 0 -121 -82 -187 -229 -187 -108 0 -101 -11 -101 174 0 90 3 166 8 170 4
4 54 6 112 4 88 -3 111 -7 141 -26z m90 -571 c91 -28 141 -85 147 -168 8 -112
-72 -210 -201 -248 -51 -15 -191 -20 -259 -9 l-38 7 0 212 c0 161 3 215 13
219 21 10 300 -1 338 -13z"/>
<path d="M11313 10422 l-143 -3 0 -724 0 -725 155 0 155 0 -2 727 c-2 475 -6
727 -13 727 -5 1 -74 0 -152 -2z"/>
<path d="M16380 9700 l0 -730 410 0 410 0 0 89 c0 48 3 108 6 132 l6 44 -273
0 -274 0 -3 193 -2 192 205 0 206 0 -3 131 -3 131 -202 -2 -203 -1 0 141 0
140 208 -1 c114 0 228 -4 255 -8 l47 -8 0 91 c0 50 3 115 6 144 l7 52 -402 0
-401 0 0 -730z"/>
<path d="M2812 9695 l3 -725 336 -3 336 -2 7 95 c3 52 6 113 6 135 l0 41 -190
-4 -190 -4 0 596 0 596 -155 0 -155 0 2 -725z"/>
<path d="M8610 9693 l0 -728 340 0 340 0 0 135 0 135 -190 -4 -190 -3 0 596 0
596 -150 0 -150 0 0 -727z"/>
</g>
</svg>
