<?xml version="1.0" standalone="no"?>
<!DOCTYPE svg PUBLIC "-//W3C//DTD SVG 20010904//EN"
 "http://www.w3.org/TR/2001/REC-SVG-20010904/DTD/svg10.dtd">
<svg version="1.0" xmlns="http://www.w3.org/2000/svg"
 width="100.000000pt" height="28.000000pt" viewBox="0 0 400.000000 130.000000"
 preserveAspectRatio="xMidYMid meet">
<metadata>
Created by potrace 1.15, written by Peter Selinger 2001-2017
</metadata>
<g transform="translate(0.000000,130.000000) scale(0.100000,-0.100000)"
fill="#000000" stroke="none">
<path d="M1352 1198 c-21 -57 -49 -131 -62 -166 -21 -57 -28 -66 -74 -93 -28
-16 -61 -29 -72 -29 -12 0 -48 18 -80 40 l-59 40 -133 0 c-160 0 -208 -15
-260 -84 -27 -36 -32 -51 -32 -99 0 -49 3 -58 31 -81 18 -15 43 -26 60 -26
l29 0 0 -290 c0 -277 1 -291 20 -310 13 -13 33 -20 60 -20 27 0 47 7 60 20 19
19 20 33 20 235 0 137 4 215 10 215 6 0 10 -77 10 -210 0 -211 0 -211 25 -235
35 -36 96 -35 124 1 20 26 21 38 21 380 l0 354 26 -10 c34 -13 117 -13 131 1
6 6 -4 -29 -22 -77 -33 -87 -33 -103 1 -104 5 0 28 50 49 110 22 61 44 110 49
110 5 0 24 11 43 26 38 29 44 65 14 86 -17 12 -18 16 -4 51 l15 37 103 0 c57
0 140 -7 185 -16 45 -8 85 -13 87 -10 7 6 -19 47 -56 88 -36 41 -135 108 -190
128 -25 9 -45 22 -43 28 1 7 -9 12 -22 12 -22 0 -29 -12 -64 -102z"/>
<path d="M782 1240 c-40 -24 -67 -78 -58 -114 3 -14 19 -40 34 -57 24 -27 36
-32 93 -36 83 -7 135 14 155 63 8 19 14 41 14 50 0 30 -30 80 -59 97 -41 24
-136 23 -179 -3z"/>
<path d="M1879 653 c-1 -85 -4 -117 -9 -95 -16 68 -79 99 -177 87 -77 -9 -93
-33 -93 -142 l0 -84 -72 3 -73 3 -3 162 c-3 184 -4 187 -85 181 l-42 -3 -3
-215 c-1 -118 0 -225 3 -238 5 -21 9 -22 145 -22 l140 0 0 33 c1 27 3 30 13
17 29 -38 61 -50 130 -50 59 0 71 3 92 25 17 16 26 37 27 62 1 27 3 21 7 -22
l6 -60 55 0 55 0 3 220 c1 121 0 230 -3 243 -5 19 -12 22 -60 22 l-55 0 -1
-127z m-473 97 c12 0 14 -30 14 -170 l0 -170 80 0 80 0 0 -45 0 -45 -125 0
-125 0 0 214 c0 196 2 215 18 219 9 3 23 3 30 1 8 -2 20 -4 28 -4z m564 -210
l0 -220 -37 0 -38 0 -3 188 c-1 103 0 202 3 220 5 29 9 32 40 32 l35 0 0 -220z
m-160 75 c36 -19 44 -55 38 -171 -6 -112 -21 -129 -112 -129 -103 0 -131 44
-125 194 4 73 7 85 28 102 29 24 128 26 171 4z"/>
<path d="M2147 763 c-10 -9 -8 -446 2 -461 6 -11 31 -12 107 -8 111 7 134 20
158 90 l13 38 6 -30 c3 -17 20 -46 38 -66 31 -35 32 -36 108 -36 65 0 81 3 96
20 22 25 32 104 15 125 -10 12 -10 15 0 15 9 0 11 17 8 60 -4 51 -9 66 -35 91
-72 72 -218 50 -235 -36 -3 -17 -7 -15 -22 13 -19 36 -67 62 -114 62 -28 0
-30 2 -34 52 -4 34 -12 56 -24 65 -19 14 -76 18 -87 6z m83 -80 l0 -68 59 3
c50 3 62 0 79 -19 38 -40 41 -164 6 -231 -20 -38 -86 -58 -112 -35 -23 21 -32
21 -32 2 0 -11 -11 -15 -40 -15 l-40 0 0 103 c0 56 3 153 7 215 l6 112 34 0
33 0 0 -67z m399 -69 c26 -19 51 -71 51 -107 0 -23 -5 -25 -68 -31 -38 -4 -76
-4 -85 0 -14 5 -17 0 -17 -23 0 -43 26 -75 58 -71 19 2 28 10 30 26 3 18 10
22 38 22 33 0 34 -1 34 -38 0 -58 -26 -77 -107 -77 -58 0 -67 3 -88 27 -40 46
-52 146 -28 231 13 49 132 75 182 41z"/>
<path d="M2237 553 c-12 -11 -8 -138 5 -151 20 -20 56 -14 74 14 24 36 23 113
-1 130 -20 15 -67 19 -78 7z"/>
<path d="M2012 468 l3 -173 55 0 55 0 3 150 c4 199 5 195 -63 195 l-55 0 2
-172z m88 7 l0 -155 -40 0 -40 0 0 139 c0 77 3 146 6 155 4 10 18 16 40 16
l34 0 0 -155z"/>
</g>
</svg>
